<svg id="Layer_1" data-name="Layer 1" xmlns="http://www.w3.org/2000/svg" xmlns:xlink="http://www.w3.org/1999/xlink" viewBox="0 0 272.8 68.01"><defs><style>.cls-1{fill:none;}.cls-2,.cls-3{fill:#21150c;}.cls-2{fill-rule:evenodd;}.cls-4{clip-path:url(#clip-path);}.cls-5{fill:url(#linear-gradient);}.cls-6{clip-path:url(#clip-path-2);}.cls-7{fill:url(#linear-gradient-2);}.cls-8{fill:#787879;}</style><clipPath id="clip-path"><path class="cls-1" d="M20.75,29.21l6.59-3.8,6.59,3.8L27.34,33ZM16.31,10l-4.66,2.69L5.29,16.41V27.64L8,29.21l3.64,2.11,2.73,1.57L16.31,34l11,6.36,11-6.36,1.94-1.12L43,34.46v3.73l-7.84,4.53-7.84,4.53L19.5,42.72l-1.71-1-6.14-3.54,3.14-1.81L8.42,32.71,5.29,34.52v7.35l6.36,3.68,4.66,2.69,11,6.36,11-6.36L43,45.55l6.37-3.68V30.79l-2.72-1.58L43,27.11,40.3,25.54l-1.94-1.12-11-6.37-11,6.37-1.93,1.12L11.65,24V20.08l7.85-4.52L27.34,11l7.84,4.53,3,1.71L43,20.08v.2L40.11,22l6.37,3.67L49.39,24V16.41L43,12.73,38.36,10l-11-6.37Z"/></clipPath><linearGradient id="linear-gradient" x1="-87.35" y1="599.56" x2="-86.56" y2="599.56" gradientTransform="matrix(-98.87, 0, 0, 98.87, -8568.93, -59251.5)" gradientUnits="userSpaceOnUse"><stop offset="0" stop-color="#8859a0"/><stop offset="0.03" stop-color="#865ca3"/><stop offset="0.69" stop-color="#50a7dc"/><stop offset="1" stop-color="#3bc4f3"/></linearGradient><clipPath id="clip-path-2"><path class="cls-1" d="M172.1,36.9H161.48v3.16h20.31V36.9Zm-1.5-9.69h-9.12v3.15h20.31V27.21Zm-9.12-8.49v3.15h20.31V18.72Z"/></clipPath><linearGradient id="linear-gradient-2" x1="-92.35" y1="610" x2="-91.35" y2="610" gradientTransform="matrix(20.31, 0, 0, -20.31, 2037.5, 12420.55)" gradientUnits="userSpaceOnUse"><stop offset="0" stop-color="#459fd8"/><stop offset="1" stop-color="#386fad"/></linearGradient></defs><path class="cls-2" d="M65.81,40.06V36.9H83c1.65,0,2.47-.65,2.47-2V32.24c0-1.32-.82-2-2.47-2H71.36a9.53,9.53,0,0,1-2.86-.38,5.21,5.21,0,0,1-1.92-1.06,4,4,0,0,1-1.08-1.62,6.33,6.33,0,0,1-.34-2.1V23.87a6.27,6.27,0,0,1,.34-2.09,3.86,3.86,0,0,1,1.08-1.62A5.07,5.07,0,0,1,68.5,19.1a9.53,9.53,0,0,1,2.86-.38H88.09v3.15H71.36c-1.64,0-2.47.66-2.47,2v1.3c0,1.32.83,2,2.47,2H83a9.5,9.5,0,0,1,2.86.37,5.07,5.07,0,0,1,1.92,1.07,3.86,3.86,0,0,1,1.08,1.62,6,6,0,0,1,.34,2.09V34.9A6,6,0,0,1,88.84,37a4,4,0,0,1-1.08,1.63,5.19,5.19,0,0,1-1.92,1.06,9.48,9.48,0,0,1-2.86.38Z"/><rect class="cls-3" x="101.66" y="18.72" width="3.73" height="21.34"/><polygon class="cls-2" points="145.09 40.06 145.09 25.11 135.05 40.06 131.99 40.06 121.92 25.14 121.92 40.06 118.47 40.06 118.47 18.72 121.95 18.72 133.68 36.15 145.35 18.72 148.55 18.72 148.55 40.06 145.09 40.06"/><polygon class="cls-2" points="203.42 40.06 203.42 21.87 193.07 21.87 193.07 18.72 217.23 18.72 217.23 21.87 207.16 21.87 207.16 40.06 203.42 40.06"/><path class="cls-2" d="M247.78,40.06l-4.63-9.52H232.74v9.52H229V18.72h16.78a9.53,9.53,0,0,1,2.86.38,4.92,4.92,0,0,1,1.92,1.06,3.86,3.86,0,0,1,1.08,1.62,6,6,0,0,1,.34,2.09v1.52a5.33,5.33,0,0,1-1.12,3.44,5.35,5.35,0,0,1-3.76,1.65l4.65,9.58Zm.48-16.22c0-1.31-.83-2-2.47-2h-13v5.52h13c1.64,0,2.47-.66,2.47-2Z"/><rect class="cls-3" x="264.42" y="18.72" width="3.73" height="21.34"/><g class="cls-4"><rect class="cls-5" x="-4.29" y="-3.82" width="63.26" height="65.92" transform="translate(-10.7 16.91) rotate(-29)"/></g><g class="cls-6"><rect class="cls-7" x="161.48" y="18.72" width="20.31" height="21.33"/></g><path class="cls-8" d="M69.57,64A3,3,0,0,1,67,62.66v1.16h-1.7V53.53H67v4.09a3,3,0,0,1,2.53-1.4A3.29,3.29,0,0,1,72,57.27a3.87,3.87,0,0,1,1,2.84,3.82,3.82,0,0,1-1,2.81A3.29,3.29,0,0,1,69.57,64Zm-.4-1.48a2,2,0,0,0,1.52-.66,2.5,2.5,0,0,0,.61-1.75,2.41,2.41,0,0,0-.62-1.71,2,2,0,0,0-1.51-.67,2.05,2.05,0,0,0-1.53.68A2.4,2.4,0,0,0,67,60.11a2.34,2.34,0,0,0,.64,1.71A2,2,0,0,0,69.17,62.49Z"/><path class="cls-8" d="M76.67,66.12a3.53,3.53,0,0,1-1.76-.46l.57-1.26a2.2,2.2,0,0,0,1,.28,1,1,0,0,0,.61-.19,1.76,1.76,0,0,0,.45-.67l-3.1-7.44h1.82l2.11,5.52,1.93-5.52h1.78l-3,7.65a4.13,4.13,0,0,1-1,1.61A2.13,2.13,0,0,1,76.67,66.12Z"/><path class="cls-8" d="M94,64a4.82,4.82,0,0,1-3.58-1.47,5.31,5.31,0,0,1,0-7.25,4.87,4.87,0,0,1,3.65-1.48,5.45,5.45,0,0,1,2.18.39,5.86,5.86,0,0,1,1.69,1.14L96.8,56.6A4.06,4.06,0,0,0,94,55.38a3,3,0,0,0-2.33,1,3.81,3.81,0,0,0,0,5,3,3,0,0,0,2.32,1,3.37,3.37,0,0,0,1.49-.32,5.23,5.23,0,0,0,1.34-1L98,62.24a6.05,6.05,0,0,1-1.77,1.31A5.23,5.23,0,0,1,94,64Z"/><path class="cls-8" d="M100.32,63.82V56.38H102v1.68a2.55,2.55,0,0,1,2.63-1.82V58h-.1a2.35,2.35,0,0,0-1.84.76A3.13,3.13,0,0,0,102,61v2.83Z"/><path class="cls-8" d="M108.38,66.12a3.56,3.56,0,0,1-1.76-.46l.58-1.26a2.2,2.2,0,0,0,1,.28,1,1,0,0,0,.61-.19,1.76,1.76,0,0,0,.45-.67l-3.1-7.44H108l2.11,5.52L112,56.38h1.77l-3,7.65a4,4,0,0,1-1,1.61A2.11,2.11,0,0,1,108.38,66.12Z"/><path class="cls-8" d="M116,66.07V56.38h1.7v1.24a3,3,0,0,1,2.52-1.4,3.29,3.29,0,0,1,2.44,1.05,3.87,3.87,0,0,1,1,2.84,3.82,3.82,0,0,1-1,2.81,3.29,3.29,0,0,1-2.44,1,3,3,0,0,1-2.52-1.31v3.41Zm3.83-3.58a2,2,0,0,0,1.51-.66,2.46,2.46,0,0,0,.62-1.75,2.41,2.41,0,0,0-.62-1.71,2,2,0,0,0-1.51-.67,2.05,2.05,0,0,0-1.53.68,2.4,2.4,0,0,0-.64,1.73,2.34,2.34,0,0,0,.64,1.71A2,2,0,0,0,119.81,62.49Z"/><path class="cls-8" d="M128.63,64a1.91,1.91,0,0,1-2.14-2.19V57.84h-.94V56.38h.94v-2h1.7v2h2v1.46h-2v3.65a.82.82,0,0,0,.92.93,2.33,2.33,0,0,0,1.06-.25v1.39A3,3,0,0,1,128.63,64Z"/><path class="cls-8" d="M136,64a3.83,3.83,0,0,1-2.82-1.13,3.9,3.9,0,0,1,0-5.5,4.1,4.1,0,0,1,5.66,0,3.9,3.9,0,0,1,0,5.5A3.86,3.86,0,0,1,136,64Zm0-1.48a2.09,2.09,0,0,0,1.63-.69,2.48,2.48,0,0,0,.62-1.71,2.4,2.4,0,0,0-.65-1.69,2.12,2.12,0,0,0-1.63-.7,2.07,2.07,0,0,0-1.62.69,2.43,2.43,0,0,0-.62,1.7,2.37,2.37,0,0,0,.65,1.69A2.11,2.11,0,0,0,136,62.51Z"/><path class="cls-8" d="M147.54,63.82V54H152a3.5,3.5,0,0,1,2.58.87,2.25,2.25,0,0,1,.66,1.66,2.36,2.36,0,0,1-1.4,2.2,2.46,2.46,0,0,1,1.95,2.42,2.32,2.32,0,0,1-1,2,4.52,4.52,0,0,1-2.67.71Zm1.7-5.71h2.37a2.36,2.36,0,0,0,1.36-.34,1.17,1.17,0,0,0,.5-1,1.09,1.09,0,0,0-.45-.93,2.14,2.14,0,0,0-1.28-.33h-2.5Zm0,4.17h2.88a2.36,2.36,0,0,0,1.4-.35,1.18,1.18,0,0,0,.5-1c0-.88-.68-1.32-2-1.32h-2.75Z"/><path class="cls-8" d="M158.23,63.82V56.38h1.71v1.68a2.55,2.55,0,0,1,2.63-1.82V58h-.1a2.35,2.35,0,0,0-1.84.76,3.13,3.13,0,0,0-.69,2.19v2.83Z"/><path class="cls-8" d="M164.8,55.24V53.62h1.83v1.62Zm.07,8.58V56.38h1.7v7.44Z"/><path class="cls-8" d="M172.93,64a3.7,3.7,0,0,1-2.73-1.09,3.79,3.79,0,0,1-1.09-2.8,3.91,3.91,0,0,1,1-2.75,3.37,3.37,0,0,1,2.61-1.13,3.21,3.21,0,0,1,2.62,1.15,4.36,4.36,0,0,1,.94,2.86,2.83,2.83,0,0,1,0,.47h-5.46a2.2,2.2,0,0,0,.71,1.39,2.08,2.08,0,0,0,1.43.5,2.83,2.83,0,0,0,2-.88l1,.88A3.75,3.75,0,0,1,172.93,64Zm-2.13-4.41h3.82a2.38,2.38,0,0,0-.58-1.41,1.66,1.66,0,0,0-1.31-.55,1.71,1.71,0,0,0-1.29.54A2.46,2.46,0,0,0,170.8,59.58Z"/><path class="cls-8" d="M179.13,63.82v-6h-.94V56.42h.94v-.53a2.49,2.49,0,0,1,.61-1.85,2.27,2.27,0,0,1,1.67-.59,4.52,4.52,0,0,1,1.38.2v1.43a3.21,3.21,0,0,0-1-.18c-.65,0-1,.38-1,1.13v.41h2v1.4h-1.95v6Zm4.94-8.58V53.62h1.84v1.62Zm.08,8.58V56.38h1.7v7.44Z"/><path class="cls-8" d="M188.8,63.82V56.38h1.7v1.15a2.7,2.7,0,0,1,2.32-1.31,2.49,2.49,0,0,1,2,.78,3,3,0,0,1,.7,2.08v4.74h-1.7V59.59a1.94,1.94,0,0,0-.42-1.34,1.46,1.46,0,0,0-1.17-.48,1.57,1.57,0,0,0-1.21.5,1.85,1.85,0,0,0-.47,1.35v4.2Z"/><path class="cls-8" d="M201.56,66.1a6.24,6.24,0,0,1-3.33-.89l.64-1.28a4.9,4.9,0,0,0,2.65.79,2.43,2.43,0,0,0,1.75-.58,2.27,2.27,0,0,0,.6-1.7v-.58a3.2,3.2,0,0,1-2.62,1.37,3.32,3.32,0,0,1-2.38-1,3.36,3.36,0,0,1-1-2.55,3.36,3.36,0,0,1,6-2.23V56.38h1.7V62.3a3.79,3.79,0,0,1-.94,2.8A4.16,4.16,0,0,1,201.56,66.1Zm.14-4.31a2.19,2.19,0,0,0,1.54-.58,1.93,1.93,0,0,0,.65-1.49,1.9,1.9,0,0,0-.65-1.48,2.19,2.19,0,0,0-1.54-.58,2.13,2.13,0,0,0-1.51.57,2,2,0,0,0-.6,1.5,1.93,1.93,0,0,0,.61,1.48A2.09,2.09,0,0,0,201.7,61.79Z"/></svg>